<?xml version="1.0" standalone="yes"?>
<svg width="42" height="63">
<path style="fill:#000000; stroke:none;" d="M0 0L0 120L41 120C33.1761 108.893 21.5975 99.6061 12 90C9.45658 87.4543 2.30904 82.2836 6.2963 78.2963C9.73346 74.8591 13.6427 79.6767 16 82.0015C23.1189 89.0225 29.8141 97.2337 38 103L38 2L46 2L46 103C54.1859 97.2337 60.8811 89.0225 68 82.0015C70.3573 79.6767 74.2665 74.8591 77.7037 78.2963C81.691 82.2835 74.5434 87.4543 72 90C62.4025 99.6061 50.8239 108.893 43 120L84 120L84 0L0 0z"/>
<path style="fill:#ffffff; stroke:none;" d="M38 2L38 103L26 91L19 84C16.9314 81.9324 1.33154 69.9986 4.34568 82.0008C5.22117 85.4869 9.57569 88.5746 12 91L32 111C34.4248 113.424 38.1883 118.793 42 118.793C45.8117 118.793 49.5752 113.424 52 111L72 91C74.4243 88.5746 78.7788 85.4869 79.6543 82.0008C82.6685 69.9986 67.0686 81.9324 65 84L58 91L46 103L46 2L38 2z"/>
</svg>
